<svg version="1.2" xmlns="http://www.w3.org/2000/svg" viewBox="0 0 495 582" width="495" height="582">
	<title>h2-services-img-bg-svg</title>
	<style>
		.s0 { fill: none;stroke: #ffeae7;stroke-width: 2 } 
		.s1 { fill: #ecf3ff } 
	</style>
	<path id="Layer" fill-rule="evenodd" class="s0" d="m250.1 28.2c-143.4 20.6-198 95.9-207.3 131-60 217.3 173.1 338.8 219.6 356.1 172.8 73 164.4-81.3 165.9-124 1.8-55.4 2.4-139.1 6.3-169 3.8-29.8-5.2-219.8-184.5-194.1z"/>
	<path id="Layer" class="s1" d="m298.5 26.5c-144-5.8-210.8 58.4-226.3 91.3-97.8 202.8 108.3 364.5 150.6 389.9 155.9 103 175.4-50.2 184.6-91.9 11.7-54.2 27.4-136.3 36.5-165 9.1-28.7 34.6-217.1-145.4-224.3z"/>
</svg>