<svg version="1.2" xmlns="http://www.w3.org/2000/svg" viewBox="0 0 49 49" width="49" height="49">
	<title>h2-testimonial-vec-right-svg</title>
	<defs>
		<clipPath clipPathUnits="userSpaceOnUse" id="cp1">
			<path d="m0 0h49v49h-49z"/>
		</clipPath>
	</defs>
	<style>
		.s0 { fill: #0000ff } 
	</style>
	<g id="Layer" style="opacity: .1">
		<g id="Clip-Path" clip-path="url(#cp1)">
			<g id="Layer">
				<path id="Layer" class="s0" d="m22.8 17.9c-0.6 2.4-0.2 4.9 1 7 1.2 2.2 3.2 3.7 5.6 4.4l10.5 3.1c5.9 1.8 11.2-5.1 7.9-10.2-1.7-2.8-4.6-4.3-6.3-7.5-1.9-3.1-2-6.3-3.4-9.3-2.9-5.3-11.3-4.1-12.7 1.9z"/>
				<path id="Layer" class="s0" d="m6.3 11.7c1 3 5.2 3.3 8.1 2.3 9.1-3 6.1-11.6-2.7-8.9-3.8 1.2-6.2 4.1-5.4 6.6z"/>
				<path id="Layer" class="s0" d="m17.2 20.6c-1.5-2.7-5.8-3.1-9.6-0.9-9 5.5-3.7 14.6 5.6 9.7 3.7-2.2 5.6-6.2 4-8.8z"/>
				<path id="Layer" class="s0" d="m28.6 38.5c-2.3 2-4.2 5.8-2.1 8.2 4.2 4.2 13.7-4.1 10.9-9-1.7-2.7-5.6-2.1-8.8 0.8z"/>
				<path id="Layer" class="s0" d="m24.3 32.8c-1.5-2.6-5.9-3-9.6-0.8-9 5.5-3.7 14.6 5.5 9.6 3.8-2.2 5.6-6.1 4.1-8.8z"/>
			</g>
		</g>
	</g>
</svg>