<svg version="1.2" xmlns="http://www.w3.org/2000/svg" viewBox="0 0 49 46" width="49" height="46">
	<title>h2-testimonial-vec-left-svg</title>
	<defs>
		<clipPath clipPathUnits="userSpaceOnUse" id="cp1">
			<path d="m0 0h49v46h-49z"/>
		</clipPath>
	</defs>
	<style>
		.s0 { fill: #0000ff } 
	</style>
	<g id="Layer" style="opacity: .1">
		<g id="Clip-Path" clip-path="url(#cp1)">
			<g id="Layer">
				<path id="Layer" class="s0" d="m27.8 27.7c0-2.5-1-4.8-2.8-6.5-1.7-1.7-4-2.7-6.5-2.8l-11-0.2c-6.1-0.2-9.5 7.7-4.9 11.9 2.4 2.2 5.5 2.9 8 5.5 2.7 2.6 3.6 5.6 5.7 8.2 4.2 4.4 12 1 11.7-5.1z"/>
				<path id="Layer" class="s0" d="m45.4 29.4c-1.8-2.6-5.9-1.8-8.5-0.1-7.9 5.3-2.9 12.9 5 7.9 3.3-2.1 4.9-5.5 3.5-7.8z"/>
				<path id="Layer" class="s0" d="m32.5 23.7c2.2 2.2 6.5 1.5 9.6-1.6 7.2-7.7-0.3-15.1-7.9-7.9-3.1 3.1-3.9 7.4-1.7 9.5z"/>
				<path id="Layer" class="s0" d="m16.9 9.3c1.7-2.5 2.5-6.7-0.1-8.4-5.1-3-12.2 7.5-8.3 11.5 2.4 2.1 6.1 0.5 8.4-3.1z"/>
				<path id="Layer" class="s0" d="m22.5 13.7c2.2 2.2 6.5 1.4 9.5-1.6 7.3-7.7-0.2-15.2-7.8-7.9-3.1 3-3.9 7.3-1.7 9.5z"/>
			</g>
		</g>
	</g>
</svg>