<svg width="44" height="31" viewBox="0 0 44 31" fill="none" xmlns="http://www.w3.org/2000/svg">
<path d="M2.81001 16.3851H2.51001V10.4751H2.81001V16.3851Z" fill="#385A9A"/>
<path d="M2.81001 19.9103H2.51001V18.0203H2.81001V19.9103Z" fill="#385A9A"/>
<path d="M33.0651 30.7852H7.65506C5.40506 30.7852 3.56006 28.9402 3.56006 26.6902V8.55521C3.56006 6.29021 5.40506 4.46021 7.65506 4.46021H33.0651C35.3151 4.46021 37.1601 6.29021 37.1601 8.55521V26.6902C37.1601 28.9402 35.3151 30.7852 33.0651 30.7852Z" fill="#385A9A"/>
<path d="M3.15501 4.35507C3.08001 4.35507 3.00501 4.32507 2.94501 4.28007L0.62001 1.95507C0.51501 1.83507 0.51501 1.65507 0.62001 1.53507C0.74001 1.41507 0.93501 1.41507 1.05501 1.53507L3.36501 3.84507C3.48501 3.96507 3.48501 4.16007 3.36501 4.28007C3.30501 4.32507 3.23001 4.35507 3.15501 4.35507Z" fill="#385A9A"/>
<path d="M4.64015 3.72515C4.50515 3.72515 4.37015 3.62015 4.35515 3.48515L3.92015 1.26515C3.89015 1.10015 3.99515 0.950147 4.16015 0.920147C4.32515 0.890147 4.47515 0.995147 4.50515 1.16015L4.94015 3.36515C4.97015 3.53015 4.86515 3.68015 4.70015 3.72515C4.68015 3.72515 4.66015 3.72515 4.64015 3.72515Z" fill="#385A9A"/>
<path d="M2.52511 5.85519C2.50511 5.85519 2.48511 5.85019 2.46511 5.84019L0.245108 5.42019C0.0801079 5.39019 -0.024892 5.22519 0.00510796 5.07519C0.035108 4.91019 0.200108 4.80519 0.365108 4.83519L2.57011 5.25519C2.73511 5.28519 2.84011 5.45019 2.81011 5.60019C2.78011 5.75019 2.66011 5.85519 2.52511 5.85519Z" fill="#385A9A"/>
<path d="M36.5601 16.415L43.9251 14.165L36.5601 21.965V16.415Z" fill="#385A9A"/>
<path d="M27.6502 22.3251H13.0552C13.0552 21.5451 13.3702 20.7951 13.9252 20.2401L14.2102 19.9551C14.6902 19.4751 14.9452 18.8301 14.9452 18.1701V14.7801C14.9452 11.7201 17.4802 9.26006 20.5552 9.36506C21.0052 9.38506 21.4402 9.46006 21.8602 9.59006C21.6952 10.0101 21.6052 10.4751 21.6052 10.9701C21.6052 13.1451 23.3752 14.9001 25.5502 14.9001C25.6202 14.9001 25.6902 14.9001 25.7602 14.9001V18.1701C25.7602 18.8301 26.0302 19.4751 26.4952 19.9551L26.7952 20.2401C27.0652 20.5251 27.2902 20.8401 27.4252 21.2001C27.5752 21.5451 27.6502 21.9351 27.6502 22.3251Z" fill="white"/>
<path d="M23.2402 23.105C23.1652 24.68 21.8452 25.925 20.2552 25.865C18.7552 25.82 17.5702 24.59 17.4802 23.105H23.2402Z" fill="white"/>
<path d="M20.45 19.4301C17.525 19.4301 15.155 17.1801 15.155 14.4051C15.155 11.6301 17.525 9.38013 20.45 9.38013C23.39 9.38013 25.76 11.6301 25.76 14.4051C25.76 17.1801 23.39 19.4301 20.45 19.4301Z" fill="white"/>
</svg>
