<svg version="1.2" xmlns="http://www.w3.org/2000/svg" viewBox="0 0 161 121" width="161" height="121">
	<title>section-sl-no-svg</title>
	<style>
		.s0 { fill: #385a9a } 
	</style>
	<g id="Layer" style="opacity: .5">
		<path id="Layer" fill-rule="evenodd" class="s0" d="m101.1 75.5c-1.8 1.4-3.5 2.9-5.2 4.2q-0.2 0.2-0.3 0.1-0.1 0.1-0.3 0.1-0.1 0.1-0.3 0.1c-4.6-0.3-9-0.5-13.6-0.2-0.4 0-0.5-0.3-0.5-0.6-0.1-0.1-0.2-0.2-0.2-0.4q0-1.4 0-2.9 0 0-0.1 0c-0.2-0.1-0.1-0.4 0.1-0.4q0 0 0 0c-0.1-11.8 0.3-23.7 0.7-35.5q-0.3 0.5-0.5 0.9c-0.5 0.6-0.9 1.4-1.5 1.9q0 0.1-0.1 0.2c-0.9 0.7-2.3 0.9-3.3 1.3-0.7 0.2-1.4 0.4-2.1 0.6-0.1 0-0.3 0-0.4-0.1-0.1 0.2-0.2 0.3-0.4 0.1-1.7-1.1-3-3.1-4.4-4.6-1.3-1.5-3.1-3.1-3.9-5q0-0.1 0-0.2c-0.1-0.1-0.1-0.2-0.1-0.3q0.3-0.4 0.5-0.7-0.1 0-0.1-0.1c-0.2 0-0.2-0.2 0-0.2q0.1 0 0.2 0c4.9-8 9.4-15.9 12.8-24.6-0.1-0.1 0-0.4 0.1-0.4q0.6-1.5 1.2-3 0.1-0.2 0.2-0.3c0-0.2 0.1-0.3 0.3-0.4q0.1 0 0.2 0 0 0 0 0c1-0.7 2-1.3 2.9-1.9 0.9-0.6 1.7-1.4 2.6-1.9 0-0.1 0.1-0.3 0.2-0.3 4.6-0.7 9.6-1.3 14.2-0.8 0.4 0 0.6 0.5 0.4 0.7 0 24.6-0.7 49 0.5 73.6 0.4 0.1 0.6 0.7 0.2 1zm-6.5 3.5c-1-24.6-1.2-49.3-0.2-73.8q0 0 0-0.1-0.1 0.1-0.2 0.2c-4.4 0.9-9.3 0.9-13.8 0.6q0 0.1-0.1 0.1-0.1 0.4-0.2 0.7c0.8-0.2 1.7-0.2 2.6 0.1 0.3 0.1 0.2 0.6-0.2 0.5-0.9-0.2-1.7-0.2-2.6-0.1q-0.3 0.8-0.6 1.6c1-0.1 2-0.1 3 0 0.4 0 0.4 0.5 0 0.5-1 0.1-2.1 0-3.2 0q-0.9 2.4-2 4.8c1.8-0.1 3.5-0.3 5.2-0.3 0.4 0 0.4 0.5 0 0.6-1.7 0.2-3.5 0.1-5.3 0.1q-1 2.3-2.1 4.6 1.4-0.3 2.9-0.4c0.3-0.1 0.3 0.4 0.1 0.4q-1.6 0.3-3.2 0.5-0.9 1.7-1.8 3.4c1.4-0.2 2.8-0.2 4.2-0.1 0.3 0 0.3 0.5 0 0.5q-2.2-0.1-4.5 0.1-1.2 2.3-2.6 4.6c2.7-0.3 5.6-0.3 8.3 0.3 0.3 0.1 0.2 0.5 0 0.5-2.9-0.3-5.7-0.5-8.6-0.4q-1.7 2.7-3.6 5.2c3.2-0.2 6.4-0.2 9.5-0.1 0.3 0.1 0.3 0.5 0 0.5-3.2 0.2-6.5 0.2-9.8 0q-0.3 0.4-0.6 0.9c0.9 0.5 1.7 1.4 2.5 2.3 1.9 0.3 3.8 0.3 5.8 0.4 0.3 0 0.3 0.5 0 0.5-1.8 0.1-3.6-0.1-5.3-0.4q0.7 0.9 1.4 1.7 0.4 0.5 1 1.1c1.1-0.4 2.4-0.7 3.7-0.4 0.2 0 0.1 0.4-0.1 0.4-1.2-0.1-2.3 0-3.4 0.3 0.8 0.8 1.7 1.7 2.3 2.7 2.5-4.9 5.2-10.1 8.6-14.4q0 0 0.1-0.1 0 0 0 0c0-0.7 1.1-0.7 1.1 0q-0.1 5.4-0.2 10.7c1.3-0.1 2.6-0.2 3.9-0.2 0.4 0 0.4 0.6 0 0.6-1.3 0.2-2.6 0.2-3.9 0.2q-0.1 2.2-0.1 4.4c1.4-0.3 2.8-0.4 4.1-0.2 0.4 0.1 0.3 0.6-0.1 0.6-1.3 0-2.7 0-4 0.2q-0.1 3.3-0.1 6.7c1 0 2.1-0.1 3.2 0 0.2 0 0.2 0.4 0 0.4-1.1 0.1-2.2 0-3.2 0q-0.1 1.6-0.1 3.2c2.1 0.1 4.2 0.1 6.4 0 0.3-0.1 0.4 0.5 0.1 0.5-2.2 0.4-4.4 0.4-6.5 0q-0.1 3.3-0.2 6.6c1.7 0.1 3.3-0.1 4.9-0.2 0.3 0 0.4 0.4 0.1 0.5-1.6 0.4-3.4 0.3-5 0.2q-0.1 2.1-0.1 4.1c1.2 0.1 2.4 0.1 3.6 0.3 0.3 0 0.2 0.4 0 0.4-1.2 0-2.4-0.2-3.7-0.3q0 2.3-0.1 4.5c0-0.1 0.1-0.2 0.2-0.1 2.1 0 4.1 0 6.2 0.2 0.4 0 0.4 0.5 0 0.5-2.1 0-4.1-0.2-6.2-0.3-0.1 0-0.2-0.1-0.2-0.2q-0.1 1.6-0.2 3.2 2.6 0.3 5.2 0.6c0.3 0 0.3 0.6 0 0.5q-2.6-0.3-5.2-0.7 0 1.4-0.1 2.8c4.2-0.6 8.8-0.6 13 0.2zm-13.1-40.8q0.1-3.5 0.2-7c-2.3 4.4-5.2 8.6-7.9 12.8q0.2 0 0.3-0.1 0.6-0.2 1.2-0.4 0.7-0.3 1.5-0.5c0.7-0.3 1.4-0.7 2.2-0.7q0 0.1 0 0.1c0.2-0.7 0.7-1.4 1.1-2q0.7-1.1 1.4-2.2zm18.3 36.8q0-0.1 0-0.2c-1.1-24.5-2-49.3 0-73.7-4.3 0.5-8.9 0.5-13.3 0.5q0 0.1-0.1 0.2c-0.8 0.9-1.9 1.5-2.9 2.1q-0.9 0.6-1.9 1.1c4.1-0.3 8.3-0.8 12.4-0.7 0.4 0 0.6 0.4 0.5 0.7 0.2-0.3 0.7-0.3 0.7 0.2 0.4 24.5-0.3 49 0.6 73.5 1.2-1.3 2.6-2.5 4-3.7z"/>
		<path id="Layer" class="s0" d="m86.4 49.2c-0.9-0.1-1.8 0-2.6 0-0.3 0-0.3 0.4 0 0.5 0.8 0 1.7 0.1 2.6 0 0.3-0.1 0.3-0.5 0-0.5z"/>
		<path id="Layer" class="s0" d="m85.9 36.8c-1 0.2-1.9 0.3-2.8 0.3-0.3 0-0.3 0.3 0 0.3 0.9 0.1 1.9 0.1 2.9-0.2 0.2-0.1 0.1-0.4-0.1-0.4z"/>
		<path id="Layer" class="s0" d="m85.9 32.8c-0.9 0-1.9 0.2-2.9 0.3-0.3 0-0.3 0.5 0 0.5 1 0 2 0 3-0.2 0.3-0.1 0.2-0.5-0.1-0.6z"/>
		<path id="Layer" fill-rule="evenodd" class="s0" d="m46.2 59.8c3.5-1.6 6.5-3.7 10-4.8 0.1 0 0.2 0 0.2 0 3.7 0.9 6.8 2.3 9.9 4.6q0 0 0 0c0.1 0 1.5 2.6 1.6 2.9-0.5 2.8 0.1 6-0.9 8.7-1.2 3.1-4.3 5-9.3 8.6-0.4 0.3-1 0.3-1.4 0-4.4-3-8.5-6.6-9.8-11.4-0.7-2.7 0.2-7-0.5-8.1 0-0.1 0-0.4 0.2-0.5zm0.5 0.5c0.5 1.5-0.3 5.5 0.4 7.9 1.2 4.3 4.6 8 9.2 10 3.6-2.2 7.9-5 9.2-9.1 0.9-2.8-0.5-6.4 0.4-9.1-3-2.1-6-3.5-9.6-4.4-3.3 1.1-6.2 3-9.6 4.7z"/>
		<path id="Layer" fill-rule="evenodd" class="s0" d="m50.1 62.2c2.2-1.4 4.1-2.3 6.2-3 0 0 0.1 0 0.2 0 2.2 1 4.1 1.9 5.9 2.8q0.1 0 0.1 0c0.1 0.1 0.2 0.3 0.1 0.4-0.5 1.5 0.4 3.8-0.2 5.7-0.9 2.6-3.5 4.4-5.8 5.7-0.1 0.1-0.2 0.2-0.4 0.1-2.9-1.2-5.2-3.6-5.9-6.4-0.5-1.6 0.1-4.2-0.3-4.9-0.1-0.1-0.1-0.3 0.1-0.4zm11.9 0.3c-1.8-0.9-3.6-1.7-5.7-2.7-1.8 0.6-3.7 1.5-5.7 2.8 0.3 1-0.2 3.3 0.2 4.7 0.7 2.6 2.8 4.8 5.5 6 2.2-1.3 4.7-3 5.5-5.4 0.6-1.7-0.2-3.8 0.2-5.4z"/>
		<path id="Layer" class="s0" d="m59.4 63.8l-3.7 4c-0.3 0.4-0.4 0.4-0.7 0l-1.6-2c-0.2-0.1-0.3-0.1-0.5 0-0.1 0.1-0.1 0.3 0 0.4l1.7 2c0.5 0.7 1 0.6 1.5 0l3.7-4c0.1-0.1 0.1-0.3 0-0.5-0.1-0.1-0.3-0.1-0.4 0.1z"/>
		<path id="Layer" class="s0" d="m68.7 54c-0.1 0-0.3 0-0.4 0.2l-1.7 3.2c-0.1 0.1 0 0.3 0.1 0.4 0.2 0.1 0.3 0 0.4-0.1l1.7-3.3c0.1-0.1 0.1-0.3-0.1-0.4z"/>
		<path id="Layer" class="s0" d="m68.2 58.7l3.2-1.5c0.1-0.1 0.2-0.2 0.1-0.4-0.1-0.1-0.2-0.2-0.4-0.1l-3.1 1.4c-0.2 0.1-0.2 0.3-0.2 0.4 0.1 0.2 0.3 0.3 0.4 0.2z"/>
		<path id="Layer" class="s0" d="m71.6 59.8l-2.9-0.1c-0.2 0-0.3 0.1-0.3 0.3 0 0.1 0.1 0.3 0.3 0.3l2.8 0.1q0.1 0 0.1 0c0.1 0 0.2-0.1 0.3-0.3 0-0.1-0.2-0.3-0.3-0.3z"/>
	</g>
	<g id="Layer" style="opacity: .4">
		<path id="Layer" class="s0" d="m156.8 69c-45.5 34.6-109 33.9-152.2-4.1-2.2-2-5.6 1.4-3.3 3.4 44.3 39.6 111.3 41.1 155.9 1.3 0.3-0.3-0.1-0.8-0.4-0.6z"/>
		<path id="Layer" class="s0" d="m155.5 67.8c-2.3-0.3-4.4 1.6-6.5 2.5-3 1.3-6.1 2-9.3 2.2-2.2 0.2-2.2 3.7 0 3.5 3.3-0.3 6.6-0.9 9.7-2.2 2.4-1 6.2-2.3 6.7-5.2 0.1-0.4-0.2-0.7-0.6-0.8z"/>
		<path id="Layer" class="s0" d="m156.4 68.4c-2.4 1.9-4.5 3.6-6.3 6.2-1.9 2.6-3.3 5.4-4.6 8.4-0.9 2.5 3.1 3.6 4.1 1.1 1.9-5.1 4.7-10.3 7.5-14.9 0.3-0.4-0.3-1.1-0.7-0.8z"/>
	</g>
</svg>